# xmcd
#
# Track frame offsets:
#   150
#   11805
#   34017
#   47166
#   64340
#   82599
#   100693
#   117447
#   125634
#
# Disc length: 1785 seconds
#
# Revision: 0
# Processed by: cddbd v1.4PL0 Copyright (c) Steve Scherf et al.
# Submitted via: uFREEDB ActiveX Control 1.5
#
DISCID=7006f709
DTITLE=CATEDRAL - CD II
DYEAR=2002
DGENRE=Blues
TTITLE0=CONTRA TODO O MAL
TTITLE1=CARPE DIEM
TTITLE2=QUANDO O VERAO CHEGAR
TTITLE3=NAS RUINAS ALGO ESTA PE
TTITLE4=PELAS RUAS DA CIDADE
TTITLE5=NO MEU PAIS
TTITLE6=TERCEIRO MUNDO
TTITLE7=RESPLANDECE
TTITLE8=RESPLANDECE INSTRUMENTAL
EXTD=
EXTT0=
EXTT1=
EXTT2=
EXTT3=
EXTT4=
EXTT5=
EXTT6=
EXTT7=
EXTT8=
PLAYORDER=
